<svg width="224" height="103" viewBox="0 0 224 103" fill="none" xmlns="http://www.w3.org/2000/svg">
<g filter="url(#filter0_d)">
<rect x="20" y="16" width="184" height="56" rx="8" fill="white"/>
<path d="M119.5 71L104.5 71L104.5 71.3077L112 79L119.5 71.3077L119.5 71Z" fill="white"/>
<path d="M59 52.5556V35.4444C59 34.1 57.8963 33 56.5494 33H39.4506C38.045 33 37 34.0426 37 35.4444V52.5556C37 53.9587 38.045 55 39.4506 55H56.5494C57.198 54.999 57.8198 54.7414 58.279 54.2833C58.7382 53.8253 58.9974 53.2041 59 52.5556ZM54.336 45.9641C54.336 45.9641 55.7196 47.3293 56.0606 47.9624C56.0703 47.9759 56.074 47.9881 56.0777 47.993C56.2158 48.2252 56.2512 48.4086 56.1816 48.543C56.0667 48.7667 55.6756 48.8791 55.5423 48.8889H53.0991C52.928 48.8889 52.5736 48.8449 52.1433 48.5479C51.8133 48.3181 51.487 47.938 51.1692 47.5677C50.695 47.0177 50.2843 46.541 49.8712 46.541C49.8188 46.5409 49.7668 46.5496 49.7172 46.5667C49.4031 46.6669 49.0047 47.113 49.0047 48.3047C49.0047 48.6774 48.7113 48.8901 48.5036 48.8901H47.384C47.0027 48.8901 45.0166 48.7569 43.2578 46.9003C41.0993 44.627 39.1609 40.0669 39.1438 40.0266C39.0216 39.732 39.2746 39.5719 39.5496 39.5719H42.0184C42.3497 39.5719 42.456 39.7723 42.5318 39.952C42.6173 40.1561 42.94 40.9799 43.468 41.9063C44.3272 43.4133 44.8564 44.0269 45.2781 44.0269C45.357 44.0264 45.4344 44.0058 45.503 43.967C46.0542 43.6627 45.9516 41.6973 45.9271 41.2916C45.9271 41.2146 45.9259 40.4128 45.6448 40.0278C45.4419 39.7491 45.0984 39.6428 44.8907 39.6024C44.9754 39.4857 45.0869 39.391 45.2158 39.3262C45.5934 39.138 46.2742 39.1111 46.9513 39.1111H47.3278C48.0623 39.1209 48.253 39.1686 48.5182 39.2358C49.0548 39.3641 49.0658 39.7124 49.0181 40.898C49.0047 41.2353 48.99 41.6179 48.99 42.0664C48.99 42.163 48.9863 42.2693 48.9863 42.3793C48.9692 42.9856 48.9497 43.6712 49.3774 43.9523C49.4328 43.987 49.4967 44.0056 49.562 44.0061C49.7111 44.0061 50.1572 44.0061 51.366 41.932C51.8977 41.0166 52.3071 39.9361 52.3352 39.8554C52.3779 39.7682 52.4398 39.6918 52.5161 39.6318C52.5787 39.5993 52.6485 39.5829 52.719 39.5841H55.6218C55.9396 39.5841 56.1547 39.6318 56.195 39.7528C56.2647 39.9471 56.1816 40.5399 54.8554 42.3317L54.2651 43.1139C53.0624 44.6881 53.0624 44.7688 54.336 45.9641Z" fill="#009FAC"/>
<path d="M88.5556 33H71.4444C70.1 33 69 34.1 69 35.4444V52.5556C69 53.9012 70.1 55 71.4444 55H80V46.4444H77.5556V43.4194H80V40.9139C80 38.269 81.4813 36.4112 84.6029 36.4112L86.8066 36.4137V39.5976H85.3436C84.1287 39.5976 83.6667 40.5093 83.6667 41.3551V43.4207H86.8053L86.1111 46.4444H83.6667V55H88.5556C89.9 55 91 53.9012 91 52.5556V35.4444C91 34.1 89.9 33 88.5556 33Z" fill="#009FAC"/>
<path fill-rule="evenodd" clip-rule="evenodd" d="M104 33C102.343 33 101 34.3431 101 36V52C101 53.6569 102.343 55 104 55H120C121.657 55 123 53.6569 123 52V36C123 34.3431 121.657 33 120 33H104ZM103.794 43.208L118.853 37.0986C119.54 36.7716 120.204 37.2729 119.941 38.38L117.377 51.0939C117.198 51.9982 116.681 52.2126 115.961 51.7953L112.054 48.7598L110.177 50.681C110.17 50.6881 110.163 50.6952 110.156 50.7023C109.946 50.9154 109.773 51.0921 109.394 51.0921L109.661 46.8994L109.659 46.8985H109.661L116.908 40.0171C117.226 39.7204 116.84 39.5747 116.417 39.8455L107.471 45.7833L103.605 44.5144C102.772 44.2455 102.766 43.6423 103.794 43.208Z" fill="#009FAC"/>
<path d="M148.125 44C148.125 42.8542 147.724 41.8802 146.922 41.0781C146.12 40.276 145.146 39.875 144 39.875C142.854 39.875 141.88 40.276 141.078 41.0781C140.276 41.8802 139.875 42.8542 139.875 44C139.875 45.1458 140.276 46.1198 141.078 46.9219C141.88 47.724 142.854 48.125 144 48.125C145.146 48.125 146.12 47.724 146.922 46.9219C147.724 46.1198 148.125 45.1458 148.125 44ZM133 42.625V52.25C133 53.0091 133.269 53.6572 133.806 54.1943C134.343 54.7314 134.991 55 135.75 55H152.25C153.009 55 153.657 54.7314 154.194 54.1943C154.731 53.6572 155 53.0091 155 52.25V35.75C155 34.9909 154.731 34.3428 154.194 33.8057C153.657 33.2686 153.009 33 152.25 33H135.75C134.991 33 134.343 33.2686 133.806 33.8057C133.269 34.3428 133 34.9909 133 35.75V39.875H138.5C139.145 39.0299 139.947 38.3604 140.906 37.8662C141.866 37.3721 142.897 37.125 144 37.125C145.103 37.125 146.134 37.3721 147.094 37.8662C148.053 38.3604 148.855 39.0299 149.5 39.875H155V42.625H150.746C150.832 43.0833 150.875 43.5417 150.875 44C150.875 45.2461 150.567 46.3955 149.951 47.4482C149.335 48.501 148.501 49.3353 147.448 49.9512C146.396 50.5671 145.246 50.875 144 50.875C142.754 50.875 141.604 50.5671 140.552 49.9512C139.499 49.3353 138.665 48.501 138.049 47.4482C137.433 46.3955 137.125 45.2461 137.125 44C137.125 43.5417 137.168 43.0833 137.254 42.625H133Z" fill="#009FAC"/>
<path fill-rule="evenodd" clip-rule="evenodd" d="M168 33C166.343 33 165 34.3431 165 36V52C165 53.6569 166.343 55 168 55H184C185.657 55 187 53.6569 187 52V36C187 34.3431 185.657 33 184 33H168ZM172.25 38.8038L182 44L172.25 49.1962V38.8038Z" fill="#009FAC"/>
</g>
<defs>
<filter id="filter0_d" x="0" y="0" width="224" height="103" filterUnits="userSpaceOnUse" color-interpolation-filters="sRGB">
<feFlood flood-opacity="0" result="BackgroundImageFix"/>
<feColorMatrix in="SourceAlpha" type="matrix" values="0 0 0 0 0 0 0 0 0 0 0 0 0 0 0 0 0 0 127 0" result="hardAlpha"/>
<feOffset dy="4"/>
<feGaussianBlur stdDeviation="10"/>
<feColorMatrix type="matrix" values="0 0 0 0 0.286275 0 0 0 0 0.435294 0 0 0 0 0.658824 0 0 0 0.15 0"/>
<feBlend mode="normal" in2="BackgroundImageFix" result="effect1_dropShadow"/>
<feBlend mode="normal" in="SourceGraphic" in2="effect1_dropShadow" result="shape"/>
</filter>
</defs>
</svg>
