<svg width="71" height="70" viewBox="0 0 71 70" fill="none" xmlns="http://www.w3.org/2000/svg">
<path d="M0.5 35C0.5 15.67 16.17 0 35.5 0C54.83 0 70.5 15.67 70.5 35C70.5 54.33 54.83 70 35.5 70C16.17 70 0.5 54.33 0.5 35Z" fill="white"/>
<path d="M32.338 18C33.5399 18 34.225 19.1974 34.225 20.3999V27.7697H32.7035C32.4076 27.0379 31.8665 26.4318 31.173 26.0553C30.4795 25.6789 29.6767 25.5555 28.9022 25.7063C28.1277 25.8571 27.4297 26.2727 26.9279 26.8819C26.426 27.491 26.1516 28.2559 26.1516 29.0453C26.1516 29.8347 26.426 30.5996 26.9279 31.2088C27.4297 31.818 28.1277 32.2336 28.9022 32.3844C29.6767 32.5352 30.4795 32.4118 31.173 32.0353C31.8665 31.6589 32.4076 31.0528 32.7035 30.321H34.225V48.8568C34.225 49.8705 33.7966 50.8791 32.8939 51.3401C32.0754 51.769 31.1659 51.9953 30.2419 52C27.6749 52 25.7658 50.7006 24.5367 49.163C23.6855 48.1019 23.0919 46.8577 22.8027 45.5283C22.0088 45.2939 21.2736 44.8939 20.6454 44.3547C19.4384 43.3155 18.5 41.6486 18.5 39.1926C18.5 37.9085 18.5918 36.7893 18.823 35.8487H25.98C27.1326 35.8487 28.088 36.6992 28.2495 37.8064C27.5209 38.108 26.9197 38.6535 26.5489 39.3497C26.178 40.0458 26.0605 40.8493 26.2164 41.6226C26.3724 42.3959 26.7921 43.0909 27.4038 43.5887C28.0155 44.0865 28.7811 44.3561 29.5696 44.3514C30.358 44.3467 31.1203 44.0679 31.726 43.5629C32.3317 43.0578 32.7432 42.3578 32.8899 41.5827C33.0366 40.8076 32.9095 40.0056 32.5303 39.3139C32.1512 38.6223 31.5435 38.0839 30.8114 37.7911C30.7221 36.5701 30.1743 35.4281 29.2781 34.5946C28.3819 33.761 27.2036 33.2976 25.98 33.2974H20.268C20.5226 33.0869 20.8059 32.914 21.1095 32.7838C20.9343 32.1588 20.8327 31.5155 20.8069 30.8669C20.7508 29.6168 20.9378 28.3157 21.3084 27.1574C21.6756 26.0178 22.257 24.9072 23.073 24.1401C23.5849 23.641 24.2334 23.3054 24.9362 23.1757C25.2745 21.747 26.1364 20.5666 27.2363 19.7111C28.649 18.6089 30.5003 18 32.3363 18H32.338ZM36.775 43.5026H39.58C40.865 43.5026 42.0973 42.9918 43.0059 42.0828C43.9145 41.1737 44.425 39.9407 44.425 38.6551V35.6021C45.1565 35.3061 45.7622 34.7647 46.1385 34.0708C46.5148 33.377 46.6381 32.5737 46.4874 31.7989C46.3367 31.024 45.9213 30.3256 45.3124 29.8236C44.7035 29.3215 43.939 29.0469 43.15 29.0469C42.361 29.0469 41.5965 29.3215 40.9876 29.8236C40.3787 30.3256 39.9633 31.024 39.8126 31.7989C39.6619 32.5737 39.7852 33.377 40.1615 34.0708C40.5378 34.7647 41.1435 35.3061 41.875 35.6021V38.6551C41.875 39.2641 41.6332 39.8481 41.2028 40.2788C40.7724 40.7094 40.1887 40.9513 39.58 40.9513H36.775V29.0572V29.0453V20.3999C36.775 19.1974 37.4601 18 38.662 18C40.5014 18 42.351 18.6089 43.7637 19.7111C44.8636 20.5666 45.7255 21.7487 46.0638 23.1757C46.7778 23.2947 47.4136 23.6587 47.927 24.1401C48.743 24.9072 49.3244 26.0161 49.6916 27.1574C50.0622 28.3157 50.2492 29.6168 50.1931 30.8669C50.1642 31.5065 50.0707 32.1596 49.8905 32.7838L50.0027 32.8348C50.6317 33.1308 51.1417 33.5951 51.5225 34.2125C52.245 35.3776 52.5 37.0546 52.5 39.1926C52.5 41.6503 51.5616 43.3189 50.3546 44.3547C49.7259 44.8941 48.9901 45.2941 48.1956 45.5283C47.9068 46.8575 47.3139 48.1017 46.4633 49.163C45.2342 50.7006 43.3251 52 40.7564 52C39.8325 51.9959 38.9231 51.7701 38.1044 51.3418C37.2034 50.8791 36.775 49.8705 36.775 48.8568V43.5026ZM28.7 29.0453C28.7 28.8198 28.7896 28.6035 28.949 28.444C29.1084 28.2845 29.3246 28.1949 29.55 28.1949C29.7754 28.1949 29.9916 28.2845 30.151 28.444C30.3104 28.6035 30.4 28.8198 30.4 29.0453C30.4 29.2709 30.3104 29.4872 30.151 29.6467C29.9916 29.8062 29.7754 29.8957 29.55 29.8957C29.3246 29.8957 29.1084 29.8062 28.949 29.6467C28.7896 29.4872 28.7 29.2709 28.7 29.0453ZM29.55 40.1009C29.3246 40.1009 29.1084 40.1904 28.949 40.3499C28.7896 40.5094 28.7 40.7257 28.7 40.9513C28.7 41.1768 28.7896 41.3931 28.949 41.5526C29.1084 41.7121 29.3246 41.8017 29.55 41.8017C29.7754 41.8017 29.9916 41.7121 30.151 41.5526C30.3104 41.3931 30.4 41.1768 30.4 40.9513C30.4 40.7257 30.3104 40.5094 30.151 40.3499C29.9916 40.1904 29.7754 40.1009 29.55 40.1009ZM42.3 32.447C42.3 32.6726 42.3896 32.8889 42.549 33.0484C42.7084 33.2079 42.9246 33.2974 43.15 33.2974C43.3754 33.2974 43.5916 33.2079 43.751 33.0484C43.9104 32.8889 44 32.6726 44 32.447C44 32.2215 43.9104 32.0052 43.751 31.8457C43.5916 31.6862 43.3754 31.5966 43.15 31.5966C42.9246 31.5966 42.7084 31.6862 42.549 31.8457C42.3896 32.0052 42.3 32.2215 42.3 32.447Z" fill="#009FAC"/>
</svg>
