<svg width="71" height="70" viewBox="0 0 71 70" fill="none" xmlns="http://www.w3.org/2000/svg">
<path d="M0.5 35C0.5 15.67 16.17 0 35.5 0C54.83 0 70.5 15.67 70.5 35C70.5 54.33 54.83 70 35.5 70C16.17 70 0.5 54.33 0.5 35Z" fill="white"/>
<path d="M37.2 46.9V50.3C37.2 50.7509 37.0209 51.1833 36.7021 51.5021C36.3833 51.8209 35.9509 52 35.5 52C35.0491 52 34.6167 51.8209 34.2979 51.5021C33.9791 51.1833 33.8 50.7509 33.8 50.3V46.9H30.4V50.3C30.4 50.7509 30.2209 51.1833 29.9021 51.5021C29.5833 51.8209 29.1509 52 28.7 52C28.2491 52 27.8167 51.8209 27.4979 51.5021C27.1791 51.1833 27 50.7509 27 50.3V46.9C27 46.8031 27.0085 46.7096 27.0238 46.6178C26.2976 46.3642 25.6379 45.95 25.094 45.406C24.55 44.8621 24.1358 44.2024 23.8822 43.4762C23.7891 43.4927 23.6946 43.5007 23.6 43.5H20.2C19.7491 43.5 19.3167 43.3209 18.9979 43.0021C18.6791 42.6833 18.5 42.2509 18.5 41.8C18.5 41.3491 18.6791 40.9167 18.9979 40.5979C19.3167 40.2791 19.7491 40.1 20.2 40.1H23.6V36.7H20.2C19.7491 36.7 19.3167 36.5209 18.9979 36.2021C18.6791 35.8833 18.5 35.4509 18.5 35C18.5 34.5491 18.6791 34.1167 18.9979 33.7979C19.3167 33.4791 19.7491 33.3 20.2 33.3H23.6V29.9H20.2C19.7491 29.9 19.3167 29.7209 18.9979 29.4021C18.6791 29.0833 18.5 28.6509 18.5 28.2C18.5 27.7491 18.6791 27.3167 18.9979 26.9979C19.3167 26.6791 19.7491 26.5 20.2 26.5H23.6C23.6969 26.5 23.7904 26.5085 23.8822 26.5238C24.3922 25.055 25.555 23.8922 27.0238 23.3822C27.0081 23.289 27.0001 23.1946 27 23.1V19.7C27 19.2491 27.1791 18.8167 27.4979 18.4979C27.8167 18.1791 28.2491 18 28.7 18C29.1509 18 29.5833 18.1791 29.9021 18.4979C30.2209 18.8167 30.4 19.2491 30.4 19.7V23.1H33.8V19.7C33.8 19.2491 33.9791 18.8167 34.2979 18.4979C34.6167 18.1791 35.0491 18 35.5 18C35.9509 18 36.3833 18.1791 36.7021 18.4979C37.0209 18.8167 37.2 19.2491 37.2 19.7V23.1H40.6V19.7C40.6 19.2491 40.7791 18.8167 41.0979 18.4979C41.4167 18.1791 41.8491 18 42.3 18C42.7509 18 43.1833 18.1791 43.5021 18.4979C43.8209 18.8167 44 19.2491 44 19.7V23.1C44 23.1952 43.9915 23.2904 43.9762 23.3822C45.445 23.8922 46.6078 25.055 47.1178 26.5238C47.2109 26.5073 47.3054 26.4993 47.4 26.5H50.8C51.2509 26.5 51.6833 26.6791 52.0021 26.9979C52.3209 27.3167 52.5 27.7491 52.5 28.2C52.5 28.6509 52.3209 29.0833 52.0021 29.4021C51.6833 29.7209 51.2509 29.9 50.8 29.9H47.4V33.3H50.8C51.2509 33.3 51.6833 33.4791 52.0021 33.7979C52.3209 34.1167 52.5 34.5491 52.5 35C52.5 35.4509 52.3209 35.8833 52.0021 36.2021C51.6833 36.5209 51.2509 36.7 50.8 36.7H47.4V40.1H50.8C51.2509 40.1 51.6833 40.2791 52.0021 40.5979C52.3209 40.9167 52.5 41.3491 52.5 41.8C52.5 42.2509 52.3209 42.6833 52.0021 43.0021C51.6833 43.3209 51.2509 43.5 50.8 43.5H47.4C47.3031 43.5 47.2096 43.4915 47.1178 43.4762C46.8642 44.2024 46.45 44.8621 45.906 45.406C45.3621 45.95 44.7024 46.3642 43.9762 46.6178C43.9932 46.7096 44 46.8048 44 46.9V50.3C44 50.7509 43.8209 51.1833 43.5021 51.5021C43.1833 51.8209 42.7509 52 42.3 52C41.8491 52 41.4167 51.8209 41.0979 51.5021C40.7791 51.1833 40.6 50.7509 40.6 50.3V46.9H37.2ZM32.1 29.9C31.6491 29.9 31.2167 30.0791 30.8979 30.3979C30.5791 30.7167 30.4 31.1491 30.4 31.6V38.4C30.4 38.8509 30.5791 39.2833 30.8979 39.6021C31.2167 39.9209 31.6491 40.1 32.1 40.1H38.9C39.3509 40.1 39.7833 39.9209 40.1021 39.6021C40.4209 39.2833 40.6 38.8509 40.6 38.4V31.6C40.6 31.1491 40.4209 30.7167 40.1021 30.3979C39.7833 30.0791 39.3509 29.9 38.9 29.9H32.1Z" fill="#009FAC"/>
</svg>
