<svg width="71" height="70" viewBox="0 0 71 70" fill="none" xmlns="http://www.w3.org/2000/svg">
<path d="M0.5 35C0.5 15.67 16.17 0 35.5 0C54.83 0 70.5 15.67 70.5 35C70.5 54.33 54.83 70 35.5 70C16.17 70 0.5 54.33 0.5 35Z" fill="white"/>
<path d="M43.5055 34.0733L46.4706 31.1076L39.3883 24.0238L36.4231 26.9896L28.6042 19.188C27.1311 17.7146 24.7325 17.7146 23.2594 19.188L19.671 22.7771C18.1978 24.2505 18.1978 26.6495 19.671 28.123L27.471 35.9246L18.5 44.9162V52H25.5824L34.5723 43.0083L42.3723 50.8099C44.1665 52.6045 46.584 51.9433 47.7171 50.8099L51.3055 47.2208C52.7787 45.7474 52.7787 43.3484 51.3055 41.8749L43.5055 34.0733ZM30.1718 33.2422L22.3528 25.4406L25.9223 21.8515L28.3209 24.2505L26.0923 26.4984L28.7553 29.1619L31.0027 26.914L33.7413 29.6531L30.1718 33.2422ZM45.0542 48.1464L37.2541 40.3448L40.8425 36.7557L43.581 39.4948L41.3336 41.7427L43.9965 44.4062L46.244 42.1583L48.6426 44.5573L45.0542 48.1464ZM51.9477 25.6295C52.1228 25.4547 52.2617 25.2471 52.3564 25.0186C52.4512 24.7901 52.5 24.5451 52.5 24.2977C52.5 24.0503 52.4512 23.8054 52.3564 23.5768C52.2617 23.3483 52.1228 23.1407 51.9477 22.966L47.5283 18.5457C46.6406 17.6579 45.413 17.9979 44.8653 18.5457L41.4091 22.0026L48.4915 29.0864L51.9477 25.6295Z" fill="#009FAC"/>
</svg>
