<svg width="71" height="70" viewBox="0 0 71 70" fill="none" xmlns="http://www.w3.org/2000/svg">
<path d="M0.5 35C0.5 15.67 16.17 0 35.5 0C54.83 0 70.5 15.67 70.5 35C70.5 54.33 54.83 70 35.5 70C16.17 70 0.5 54.33 0.5 35Z" fill="white"/>
<path d="M35.5 15C36.4162 15 37.2949 15.3793 37.9427 16.0544C38.5906 16.7295 38.9545 17.6452 38.9545 18.6C38.9545 19.932 38.2636 21.102 37.2273 21.714V24H38.9545C42.1613 24 45.2366 25.3275 47.5041 27.6905C49.7716 30.0534 51.0455 33.2583 51.0455 36.6H52.7727C53.2308 36.6 53.6702 36.7896 53.9941 37.1272C54.318 37.4648 54.5 37.9226 54.5 38.4V43.8C54.5 44.2774 54.318 44.7352 53.9941 45.0728C53.6702 45.4104 53.2308 45.6 52.7727 45.6H51.0455V47.4C51.0455 48.3548 50.6815 49.2705 50.0336 49.9456C49.3858 50.6207 48.5071 51 47.5909 51H23.4091C22.4929 51 21.6142 50.6207 20.9664 49.9456C20.3185 49.2705 19.9545 48.3548 19.9545 47.4V45.6H18.2273C17.7692 45.6 17.3298 45.4104 17.0059 45.0728C16.682 44.7352 16.5 44.2774 16.5 43.8V38.4C16.5 37.9226 16.682 37.4648 17.0059 37.1272C17.3298 36.7896 17.7692 36.6 18.2273 36.6H19.9545C19.9545 33.2583 21.2284 30.0534 23.4959 27.6905C25.7634 25.3275 28.8387 24 32.0455 24H33.7727V21.714C32.7364 21.102 32.0455 19.932 32.0455 18.6C32.0455 17.6452 32.4094 16.7295 33.0573 16.0544C33.7051 15.3793 34.5838 15 35.5 15ZM27.7273 34.8C26.582 34.8 25.4837 35.2741 24.6739 36.118C23.864 36.9619 23.4091 38.1065 23.4091 39.3C23.4091 40.4935 23.864 41.6381 24.6739 42.482C25.4837 43.3259 26.582 43.8 27.7273 43.8C28.8725 43.8 29.9709 43.3259 30.7807 42.482C31.5905 41.6381 32.0455 40.4935 32.0455 39.3C32.0455 38.1065 31.5905 36.9619 30.7807 36.118C29.9709 35.2741 28.8725 34.8 27.7273 34.8ZM43.2727 34.8C42.1275 34.8 41.0291 35.2741 40.2193 36.118C39.4095 36.9619 38.9545 38.1065 38.9545 39.3C38.9545 40.4935 39.4095 41.6381 40.2193 42.482C41.0291 43.3259 42.1275 43.8 43.2727 43.8C44.418 43.8 45.5163 43.3259 46.3261 42.482C47.136 41.6381 47.5909 40.4935 47.5909 39.3C47.5909 38.1065 47.136 36.9619 46.3261 36.118C45.5163 35.2741 44.418 34.8 43.2727 34.8Z" fill="#009FAC"/>
</svg>
