<svg width="41" height="43" viewBox="0 0 41 43" fill="none" xmlns="http://www.w3.org/2000/svg">
<path d="M9.65879 32.4218L5.44879 39.2078L5.89679 41.4273L8.01679 40.9533L12.2248 34.1716C11.3199 33.6717 10.461 33.0859 9.65879 32.4218ZM27.4828 30.052C27.5108 29.9914 27.5288 29.9246 27.5548 29.8599C27.6608 29.6156 27.7548 29.3713 27.8308 29.1145C27.8428 29.0686 27.8488 29.0226 27.8628 28.9809C27.9408 28.7002 28.0062 28.416 28.0588 28.129V28.0851C28.4488 25.6443 27.7688 22.9216 26.2128 20.4619L28.4328 16.8831C30.9908 17.2235 33.2028 16.5511 34.2668 14.8327C36.1128 11.8615 33.8668 6.91513 29.2568 3.78107C24.6428 0.644934 19.4108 0.513391 17.5688 3.48041C16.5008 5.2009 16.8128 7.58746 18.1548 9.89676L15.9308 13.4755C13.1528 12.989 10.4988 13.4421 8.52479 14.8119C8.51279 14.816 8.49879 14.8202 8.49079 14.8286C8.26015 14.9923 8.03847 15.1693 7.82679 15.3589C7.79279 15.3881 7.75279 15.4153 7.72479 15.4445C7.53278 15.6216 7.35175 15.8113 7.18279 16.0124C7.14279 16.0626 7.08679 16.1064 7.04879 16.1586C6.83578 16.4104 6.64186 16.6792 6.46879 16.9625C3.70079 21.4161 6.06279 28.1561 11.7348 32.0147C17.4108 35.8733 24.2548 35.3847 27.0168 30.931C27.1908 30.6492 27.3508 30.3548 27.4828 30.052ZM25.8528 9.25992C24.0788 8.05516 23.2128 6.1551 23.9228 5.0088C24.6308 3.86668 26.6448 3.91888 28.4148 5.12364C30.1928 6.32841 31.0508 8.23264 30.3448 9.37476C29.6388 10.5169 27.6288 10.4647 25.8528 9.25992Z" fill="#009FAC"/>
</svg>
