<svg width="194" height="48" fill="none" xmlns="http://www.w3.org/2000/svg"><path d="M26.706 14.777a14.903 14.903 0 011.786 2.956l-13.58 9.984-5.676-3.548V19.9l5.676 3.549 11.794-8.672zM3.444 23.868c0-.192.005-.382.014-.571l-3.44-.168a14.793 14.793 0 004.348 11.25l2.44-2.432a11.39 11.39 0 01-3.362-8.08zM14.91 12.434c.191 0 .382.007.572.016l.172-3.431a14.903 14.903 0 00-11.287 4.336l2.44 2.434a11.425 11.425 0 018.102-3.355zM14.91 35.302c-.192 0-.383 0-.574-.016l-.172 3.43a14.893 14.893 0 0011.282-4.336l-2.435-2.431a11.431 11.431 0 01-8.101 3.353z" fill="#E0F0FF"/><path d="M21.371 14.43l2.899-2.132A14.866 14.866 0 0014.904 9v3.434a11.427 11.427 0 016.467 1.995zM29.817 23.868a14.914 14.914 0 00-.234-2.665l-3.209 2.359v.306a11.379 11.379 0 01-3.776 8.474l2.314 2.551A14.83 14.83 0 0028.54 29.9c.845-1.9 1.28-3.954 1.277-6.032zM14.909 35.302a11.469 11.469 0 01-8.499-3.767l-2.556 2.307a14.866 14.866 0 005.006 3.619 14.902 14.902 0 006.049 1.274v-3.433zM7.22 15.393l-2.312-2.55a14.83 14.83 0 00-3.63 4.992A14.794 14.794 0 000 23.867h3.444a11.379 11.379 0 013.777-8.474zM86.034 17.503l4.266-3.1H76.023v18.622H90.3v-3.1H80.097v-4.769h8.704v-3.099h-8.704v-4.554h5.937zM66.416 21.658H61.46V17.5h7.91l4.263-3.108H57.39v18.62h8.503c4.767 0 7.504-2.13 7.504-5.845 0-3.555-2.479-5.51-6.98-5.51zm-.707 8.256h-4.25v-5.16h4.25c2.578 0 3.787.865 3.787 2.58s-1.286 2.58-3.787 2.58zM100.795 14.401h-7.772v18.62h4.074v-5.274h3.698c4.958 0 8.025-2.573 8.025-6.683 0-4.11-3.067-6.663-8.025-6.663zm-.086 10.245h-3.612v-7.144h3.612c2.608 0 4.047 1.27 4.047 3.573 0 2.304-1.439 3.57-4.047 3.57zM51.277 28.627a7.191 7.191 0 01-3.428.846c-3.58 0-6.178-2.52-6.178-5.992 0-3.471 2.597-5.997 6.178-5.997a6.115 6.115 0 013.61 1.102l2.849-2.07-.193-.134c-1.662-1.441-3.883-2.204-6.425-2.204-2.757 0-5.257.914-7.042 2.578a8.988 8.988 0 00-2.097 3.029 8.883 8.883 0 00-.696 3.602 9.179 9.179 0 00.694 3.643 9.281 9.281 0 002.082 3.085c1.794 1.73 4.288 2.683 7.026 2.683 2.86 0 5.36-.983 7.053-2.774l-2.55-1.873-.883.476zM124.97 21.658h-4.955V17.5h10.647v-3.108h-14.721v18.62h8.493c4.767 0 7.503-2.13 7.503-5.845.011-3.555-2.466-5.51-6.967-5.51zm-.708 8.256h-4.247v-5.16h4.247c2.579 0 3.787.865 3.787 2.58s-1.275 2.58-3.787 2.58zM178.247 32.987h-4.13v-18.62h4.13v7.82h2.247l6.07-7.82h4.68l-7.2 8.857 8.36 9.763h-5.479l-6.144-7.323h-2.534v7.323zM146.939 29.449h-8.735l-1.481 3.616h-4.395l8.193-18.621h4.394l8.06 18.62h-4.555l-1.481-3.615zm-1.368-3.374l-2.974-7.232-2.99 7.232h5.964zM158.535 14.444v7.775h8.545v-7.775h4.258v18.62h-4.258v-7.337h-8.545v7.338h-4.258V14.444h4.258z" fill="#E0F0FF"/></svg>
